<?xml version="1.0" encoding="utf-8"?>
<!-- Generator: Adobe Illustrator 28.0.0, SVG Export Plug-In . SVG Version: 6.00 Build 0)  -->
<svg version="1.1" id="Logo" xmlns="http://www.w3.org/2000/svg" xmlns:xlink="http://www.w3.org/1999/xlink" x="0px" y="0px"
	 viewBox="0 0 340.16 106" style="enable-background:new 0 0 340.16 106;" xml:space="preserve">
<style type="text/css">
	.st0{fill:url(#SVGID_1_);}
	.st1{fill:url(#SVGID_00000029748422031021337590000016838405767735176619_);}
	.st2{fill:url(#SVGID_00000117634140169584811060000008231639042925728640_);}
	.st3{fill:url(#SVGID_00000106865992658060886250000004102267868012179616_);}
	.st4{fill:url(#SVGID_00000132050466487725026310000007630574313070751408_);}
	.st5{fill:#0066B3;}
	.st6{fill:#ED3432;}
	.st7{fill:#CDCFD0;}
	.st8{fill:#D5D7D8;}
	.st9{fill:#B1B3B6;}
	.st10{fill:#C4C6C8;}
	.st11{fill:url(#SVGID_00000080892880389899336770000012694606757889400485_);}
	.st12{fill:url(#SVGID_00000067947501439067000820000009594008331213638545_);}
	.st13{fill:url(#SVGID_00000061454691027140340550000002011364884135729795_);}
	.st14{fill:url(#SVGID_00000158009922692691682680000017268675086635656107_);}
	.st15{fill:url(#SVGID_00000116946846999195948340000013857161207773957302_);}
	.st16{fill:url(#SVGID_00000181067886134894678130000013723325224192537506_);}
	.st17{fill:url(#SVGID_00000075850390111282919660000009010679202903410869_);}
	.st18{fill:url(#SVGID_00000066506306911779194590000014718880944169862789_);}
	.st19{fill:url(#SVGID_00000077284117808103036780000014988959355135960493_);}
	.st20{fill:url(#SVGID_00000055680078371539669660000006118416843907222145_);}
	.st21{fill:url(#SVGID_00000058563400435331823940000002808282528669316789_);}
	.st22{fill:url(#SVGID_00000091007563486960760570000017366822115535530390_);}
	.st23{fill:url(#SVGID_00000183957014103317297180000003494376937737869480_);}
	.st24{fill:#58595B;}
	.st25{fill:url(#SVGID_00000006703280044939542750000001069572783593084571_);}
	.st26{fill:#00528A;}
	.st27{fill:#3B81C3;}
	.st28{fill:url(#SVGID_00000109024865079147072660000013291175669851259567_);}
	.st29{fill:url(#SVGID_00000052825658403888665990000006437922539194764446_);}
	.st30{fill:#00000C;}
	.st31{fill:url(#SVGID_00000142887233889243535720000013706308673789356198_);}
	.st32{fill:#004578;}
	.st33{fill:url(#SVGID_00000183947559541310699960000015204799325815484572_);}
	.st34{fill:url(#SVGID_00000176008059021898479660000012249412023127561131_);}
	.st35{fill:url(#SVGID_00000039836686857314388710000018095431776474292877_);}
	.st36{fill:url(#SVGID_00000030460826092880308530000017037512937949914245_);}
</style>
<g>
	<linearGradient id="SVGID_1_" gradientUnits="userSpaceOnUse" x1="278.3592" y1="25.053" x2="328.212" y2="97.8165">
		<stop  offset="0.2197" style="stop-color:#C4C6C8"/>
		<stop  offset="1" style="stop-color:#58595B"/>
	</linearGradient>
	<path class="st0" d="M289.87,73.52h14.75c6.35,0,8.99-1.47,8.99-7.42c0-6.06-2.25-6.93-8.59-6.93h-15.14V73.52z M289.87,45.58
		h14.06c6.84,0,8.5-1.17,8.5-7.03c0-4.39-0.68-6.06-6.15-6.25h-16.41V45.58z M270.33,16.28h38.48c14.55,0,23.15,2.73,23.15,18.75
		c0,9.28-1.86,15.69-11.52,17.26v0.08c10.84,0.68,12.7,7.56,12.7,16.75c0,17.97-8.4,20.41-23.93,20.41h-38.87V16.28z"/>
	
		<linearGradient id="SVGID_00000162321685503314961240000000321442324745033639_" gradientUnits="userSpaceOnUse" x1="142.9419" y1="95.5507" x2="178.7934" y2="30.6807">
		<stop  offset="5.968611e-04" style="stop-color:#58595B"/>
		<stop  offset="0.6997" style="stop-color:#C4C6C8"/>
	</linearGradient>
	<polygon style="fill:url(#SVGID_00000162321685503314961240000000321442324745033639_);" points="172.8,16.27 154.12,43.7 
		153.95,43.7 153.95,16.27 134.37,16.27 134.37,89.55 153.95,89.55 153.94,61.08 154.16,61.08 174.37,89.55 198.65,89.55 
		170.64,52.22 196.5,16.27 	"/>
	
		<linearGradient id="SVGID_00000131355707603743358290000008906786079379982767_" gradientUnits="userSpaceOnUse" x1="229.0395" y1="99.1802" x2="229.0395" y2="39.9261">
		<stop  offset="0" style="stop-color:#58595B"/>
		<stop  offset="0.2646" style="stop-color:#7D7E80"/>
		<stop  offset="0.7215" style="stop-color:#C4C6C8"/>
	</linearGradient>
	<path style="fill:url(#SVGID_00000131355707603743358290000008906786079379982767_);" d="M233.72,44.96
		c21.52,1.93,26.81,4.74,26.52,21.44c-0.21,12.04,0.07,25.57-31.97,25.01c-18.54-0.32-30.86-2.61-30.45-26.49l18.64,0.01
		c-0.13,7.57,2.57,8.71,12.09,8.88c9.13,0.16,12.14-0.37,12.25-6.49c0.11-6.31-0.96-6.23-10.07-6.97l-4.27-0.37
		c-17.94-1.57-28.42-1.66-28.06-22.53c0.36-20.87,12.13-23.29,31.16-22.96c15.92,0.28,29.51,2.07,29.15,22.16l-0.05,3.01l-18.64,0
		c0.13-7.47-2.98-7.86-10.74-7.99c-10.48-0.18-11.4,1.94-11.47,6.01c-0.1,5.82,2.71,6.07,7.85,6.54L233.72,44.96z"/>
	
		<linearGradient id="SVGID_00000096752376398723965240000002172642125460361918_" gradientUnits="userSpaceOnUse" x1="88.0596" y1="-2.875" x2="39.2975" y2="82.0994">
		<stop  offset="0.3598" style="stop-color:#C4C6C8"/>
		<stop  offset="1" style="stop-color:#58595B"/>
	</linearGradient>
	<path style="fill:url(#SVGID_00000096752376398723965240000002172642125460361918_);" d="M23.23,30.04c0-4.07,3.3-7.37,7.37-7.37
		h50.9c4.07,0,7.37,3.3,7.37,7.37v45.73c0,4.07-3.3,7.37-7.37,7.37h-6.33v16.16h7.85c12.16,0,22.02-9.86,22.02-22.02V28.53
		c0-12.16-9.86-22.02-22.02-22.02H29.08c-12.16,0-22.02,9.86-22.02,22.02v8.53l8.08-5.29l8.08,5.29V30.04z"/>
	<g>
		
			<linearGradient id="SVGID_00000101066608931704703540000007448798259395041434_" gradientUnits="userSpaceOnUse" x1="36.6513" y1="59.2029" x2="12.5761" y2="79.3261">
			<stop  offset="3.894586e-07" style="stop-color:#0066B3"/>
			<stop  offset="1" style="stop-color:#003674"/>
		</linearGradient>
		<path style="fill:url(#SVGID_00000101066608931704703540000007448798259395041434_);" d="M23.23,75c0,4.5,3.65,8.15,8.15,8.15
			s8.15-3.65,8.15-8.15c0-4.5-3.65-8.15-8.15-8.15h-4.54V50.69h4.54c13.43,0,24.31,10.88,24.31,24.31S44.8,99.31,31.37,99.31
			S7.06,88.42,7.06,75V40.87l8.08-5.27l8.08,5.27V75z"/>
	</g>
	<path class="st5" d="M72.05,83.14v16.16h-27.8v-0.19c0,0,10.04-4.31,13.68-15.97C61.92,83.14,72.05,83.14,72.05,83.14z"/>
	<line class="st6" x1="226.64" y1="14.47" x2="226.64" y2="14.47"/>
	<polygon class="st7" points="153.95,43.7 154.12,43.7 155.15,45.64 152.01,45.64 	"/>
	<polygon points="153.94,61.08 154.16,61.08 155.15,59.13 152,59.16 	"/>
	<polygon class="st8" points="153.95,16.27 134.37,16.27 136.31,18.21 152.01,18.21 	"/>
	<polygon class="st8" points="196.5,16.27 172.8,16.27 173.82,18.21 192.71,18.21 	"/>
	<polygon points="153.95,89.55 134.37,89.55 136.31,87.61 152.01,87.61 	"/>
	<polygon points="198.65,89.55 174.37,89.55 175.37,87.61 194.77,87.61 	"/>
	<polygon points="154.16,61.08 174.37,89.55 175.37,87.61 155.15,59.13 	"/>
	<polygon class="st9" points="153.95,89.55 153.94,61.08 152,59.16 152.01,87.61 	"/>
	<polygon points="134.37,89.55 134.37,16.27 136.31,18.21 136.31,87.61 	"/>
	<polygon class="st10" points="168.24,52.25 194.77,87.61 198.65,89.55 170.64,52.22 	"/>
	
		<linearGradient id="SVGID_00000065060028968505079560000012245089263120035238_" gradientUnits="userSpaceOnUse" x1="170.3504" y1="50.7078" x2="192.9416" y2="19.8189">
		<stop  offset="5.025145e-04" style="stop-color:#A7A9AC"/>
		<stop  offset="1" style="stop-color:#A7A9AC"/>
	</linearGradient>
	<polygon style="fill:url(#SVGID_00000065060028968505079560000012245089263120035238_);" points="196.5,16.27 170.64,52.22 
		168.24,52.25 192.71,18.21 	"/>
	
		<linearGradient id="SVGID_00000072276734942571461430000013127535063522463140_" gradientUnits="userSpaceOnUse" x1="156.1565" y1="42.0379" x2="172.2482" y2="19.2181">
		<stop  offset="0" style="stop-color:#000000"/>
		<stop  offset="0.1428" style="stop-color:#060606"/>
		<stop  offset="0.3292" style="stop-color:#151616"/>
		<stop  offset="0.5398" style="stop-color:#2F3031"/>
		<stop  offset="0.7681" style="stop-color:#545557"/>
		<stop  offset="1" style="stop-color:#808285"/>
	</linearGradient>
	<polygon style="fill:url(#SVGID_00000072276734942571461430000013127535063522463140_);" points="154.12,43.7 172.8,16.27 
		173.82,18.21 155.15,45.64 	"/>
	
		<linearGradient id="SVGID_00000013878399619976290270000004865903599100049041_" gradientUnits="userSpaceOnUse" x1="152.9803" y1="42.6665" x2="152.9803" y2="19.5747">
		<stop  offset="0" style="stop-color:#CDCFD0"/>
		<stop  offset="1" style="stop-color:#D5D7D8"/>
	</linearGradient>
	<polygon style="fill:url(#SVGID_00000013878399619976290270000004865903599100049041_);" points="153.95,43.7 153.95,16.27 
		152.01,18.21 152.01,45.64 	"/>
	<path class="st8" d="M258.67,39.67l0.05-3.01c0.35-20.09-13.24-21.89-29.15-22.16c-1-0.02-1.98-0.03-2.93-0.03v1.94
		c0.91,0,1.86,0.01,2.9,0.03c3.43,0.06,7.44,0.19,11.07,0.73c3.6,0.54,6.44,1.41,8.69,2.67c2.49,1.39,4.29,3.28,5.51,5.78
		c0.67,1.37,1.18,2.94,1.5,4.69c0.35,1.87,0.51,4,0.47,6.32l-0.02,1.1L258.67,39.67z"/>
	<polygon points="258.67,39.67 240.03,39.68 241.93,37.74 256.77,37.73 	"/>
	<path d="M240.03,39.68c0.13-7.47-2.98-7.86-10.74-7.99l0.03-1.94c1.77,0.03,3.63,0.08,5.18,0.27c1.76,0.22,3.07,0.62,4.12,1.25
		c0.63,0.38,1.18,0.86,1.63,1.42c0.45,0.56,0.81,1.21,1.07,1.95c0.25,0.69,0.42,1.45,0.53,2.33c0.03,0.25,0.05,0.51,0.07,0.78
		L240.03,39.68z"/>
	
		<linearGradient id="SVGID_00000003820883994985982440000002498437823180811170_" gradientUnits="userSpaceOnUse" x1="238.3133" y1="31.5274" x2="238.1663" y2="43.7428">
		<stop  offset="0.1004" style="stop-color:#000000"/>
		<stop  offset="0.2205" style="stop-color:#272728"/>
		<stop  offset="0.4266" style="stop-color:#656566"/>
		<stop  offset="0.6151" style="stop-color:#959697"/>
		<stop  offset="0.7795" style="stop-color:#B8B9BB"/>
		<stop  offset="0.9133" style="stop-color:#CECFD0"/>
		<stop  offset="1" style="stop-color:#D5D7D8"/>
	</linearGradient>
	<path style="fill:url(#SVGID_00000003820883994985982440000002498437823180811170_);" d="M233.72,44.96l-8.05-0.72
		c-3.6-0.33-6.05-0.55-7.17-2.65c-0.48-0.9-0.71-2.14-0.68-3.89c0.07-3.91,0.91-6.02,10.26-6.02c0.39,0,0.79,0,1.21,0.01l0.03-1.94
		c-0.43-0.01-0.85-0.01-1.24-0.01c-2.43,0-4.36,0.14-5.89,0.42c-1.64,0.31-2.91,0.79-3.86,1.5c-0.51,0.37-0.94,0.82-1.29,1.32
		c-0.32,0.46-0.57,0.98-0.75,1.55c-0.33,1.04-0.39,2.17-0.41,3.14c-0.03,1.68,0.16,3.04,0.59,4.14c0.23,0.6,0.54,1.15,0.92,1.61
		c0.37,0.46,0.82,0.86,1.33,1.19c0.83,0.53,1.83,0.89,3.16,1.14c1.07,0.2,2.22,0.31,3.56,0.43l0.05,0l0,0l0,0l8.05,0.72
		c5.91,0.53,9.92,1.08,13.01,1.78c1.7,0.38,3.13,0.82,4.36,1.32c1.22,0.5,2.22,1.05,3.07,1.7c0.83,0.63,1.5,1.34,2.05,2.18
		c0.56,0.85,1.01,1.82,1.35,2.97c0.7,2.32,0.99,5.35,0.91,9.53l1.94,0.03C260.54,49.71,255.24,46.89,233.72,44.96z"/>
	
		<linearGradient id="SVGID_00000160879864488985780910000010295524194253792190_" gradientUnits="userSpaceOnUse" x1="240.2801" y1="89.2484" x2="258.8418" y2="72.8389">
		<stop  offset="0" style="stop-color:#000000"/>
		<stop  offset="0.1012" style="stop-color:#0C0C0C"/>
		<stop  offset="0.2866" style="stop-color:#2D2D2E"/>
		<stop  offset="0.5353" style="stop-color:#626363"/>
		<stop  offset="0.8346" style="stop-color:#AAABAD"/>
		<stop  offset="1" style="stop-color:#D5D7D8"/>
	</linearGradient>
	<path style="fill:url(#SVGID_00000160879864488985780910000010295524194253792190_);" d="M258.31,66.37c0,0.19-0.01,0.37-0.01,0.56
		c-0.05,2.82-0.1,5.74-0.58,8.43c-0.25,1.4-0.6,2.62-1.05,3.73c-0.5,1.22-1.13,2.29-1.92,3.26c-0.42,0.51-0.88,1-1.39,1.45
		c-0.53,0.48-1.12,0.93-1.75,1.34c-1.36,0.89-3,1.65-4.86,2.27c-2.03,0.67-4.39,1.18-7.03,1.53c-2.82,0.37-6.03,0.56-9.55,0.56v1.94
		c30.13,0,29.87-13.24,30.08-25.03L258.31,66.37z"/>
	<path d="M197.83,64.92c-0.42,23.88,11.9,26.17,30.45,26.49c0.64,0.01,1.27,0.02,1.89,0.02v-1.94c-0.61,0-1.23-0.01-1.86-0.02
		c-3.9-0.07-8.41-0.23-12.35-0.89c-1.86-0.31-3.48-0.72-4.93-1.23c-1.53-0.54-2.84-1.18-4-1.96c-1.21-0.81-2.23-1.76-3.11-2.88
		c-0.45-0.58-0.88-1.21-1.25-1.88c-0.39-0.69-0.74-1.45-1.05-2.24c-0.65-1.67-1.13-3.6-1.43-5.76c-0.25-1.74-0.39-3.68-0.41-5.77
		L197.83,64.92z"/>
	<polygon class="st9" points="197.83,64.92 216.47,64.93 214.57,66.87 199.77,66.86 	"/>
	
		<linearGradient id="SVGID_00000125583781167122757920000005623381530527545279_" gradientUnits="userSpaceOnUse" x1="217.0986" y1="70.3399" x2="226.9311" y2="70.3399">
		<stop  offset="0" style="stop-color:#B1B3B6"/>
		<stop  offset="1" style="stop-color:#939598"/>
	</linearGradient>
	<path style="fill:url(#SVGID_00000125583781167122757920000005623381530527545279_);" d="M216.47,64.93
		c-0.13,7.57,2.57,8.71,12.09,8.88l-0.03,1.94c-5.05-0.09-8.42-0.44-10.71-2c-0.65-0.44-1.2-0.97-1.65-1.59
		c-0.43-0.6-0.78-1.29-1.04-2.07c-0.3-0.91-0.48-1.96-0.56-3.22L216.47,64.93z"/>
	
		<linearGradient id="SVGID_00000106121445972823262090000013118745518281847734_" gradientUnits="userSpaceOnUse" x1="229.9738" y1="75.069" x2="243.1259" y2="69.6528">
		<stop  offset="0.2563" style="stop-color:#939598"/>
		<stop  offset="0.3778" style="stop-color:#7F8183"/>
		<stop  offset="0.6287" style="stop-color:#4B4C4D"/>
		<stop  offset="0.9483" style="stop-color:#000000"/>
	</linearGradient>
	<path style="fill:url(#SVGID_00000106121445972823262090000013118745518281847734_);" d="M240.81,67.32
		c-0.1,5.58-2.62,6.51-9.99,6.51c-0.71,0-1.46-0.01-2.26-0.02l-0.03,1.94c0.88,0.02,1.63,0.02,2.29,0.02c2.14,0,3.66-0.08,4.92-0.25
		c1.6-0.22,2.8-0.59,3.8-1.18c0.57-0.34,1.07-0.75,1.48-1.24c0.41-0.48,0.76-1.04,1.02-1.66c0.24-0.58,0.42-1.2,0.54-1.92
		c0.11-0.65,0.17-1.36,0.18-2.16L240.81,67.32z"/>
	<path d="M240.81,67.32c0.11-6.31-0.96-6.23-10.07-6.97l-4.27-0.37c-17.94-1.57-28.42-1.66-28.06-22.53l1.94,0.03
		c-0.04,2.38,0.06,4.52,0.32,6.37c0.24,1.76,0.62,3.33,1.13,4.66c0.48,1.26,1.08,2.32,1.81,3.24c0.7,0.87,1.51,1.6,2.49,2.24
		c4.06,2.64,10.46,3.19,18.55,3.88c0.65,0.06,1.31,0.11,1.99,0.17l4.26,0.36c0.23,0.02,0.46,0.04,0.68,0.06
		c2.15,0.17,3.85,0.31,5.2,0.52c0.76,0.12,1.4,0.26,1.94,0.43c0.66,0.21,1.22,0.46,1.7,0.78c1.05,0.71,1.72,1.71,2.05,3.08
		c0.23,0.97,0.32,2.15,0.28,4.07L240.81,67.32z"/>
	
		<linearGradient id="SVGID_00000070109870113885483810000003076056859758910873_" gradientUnits="userSpaceOnUse" x1="200.7134" y1="36.5219" x2="215.4713" y2="18.0945">
		<stop  offset="0" style="stop-color:#000000"/>
		<stop  offset="0.2862" style="stop-color:#464747"/>
		<stop  offset="0.6224" style="stop-color:#939495"/>
		<stop  offset="0.8624" style="stop-color:#C3C4C5"/>
		<stop  offset="0.981" style="stop-color:#D5D7D8"/>
	</linearGradient>
	<path style="fill:url(#SVGID_00000070109870113885483810000003076056859758910873_);" d="M198.41,37.46
		c0.35-19.77,10.93-22.98,28.23-22.98v1.94c-4.73,0-8.32,0.25-11.32,0.78c-3.36,0.6-5.99,1.57-8.07,2.96
		c-2.2,1.48-3.81,3.49-4.93,6.13c-0.6,1.42-1.07,3.05-1.4,4.85c-0.34,1.88-0.53,4.02-0.57,6.35L198.41,37.46z"/>
	<polygon points="270.33,89.53 270.33,16.28 272.27,18.22 272.27,87.59 	"/>
	<path class="st8" d="M270.33,16.28h38.48c14.55,0,23.15,2.73,23.15,18.75h-1.94c0-1.87-0.13-3.58-0.37-5.09
		c-0.24-1.44-0.59-2.73-1.05-3.86c-0.86-2.08-2.11-3.66-3.84-4.83c-1.66-1.12-3.79-1.9-6.53-2.39c-2.49-0.44-5.48-0.65-9.42-0.65
		h-36.54L270.33,16.28z"/>
	<polygon class="st7" points="289.87,32.3 289.87,45.58 287.93,47.52 287.93,30.36 	"/>
	<polygon class="st9" points="289.87,59.16 289.87,73.52 287.93,75.46 287.93,57.22 	"/>
	<path d="M289.87,59.16H305c6.35,0,8.59,0.88,8.59,6.93h1.94c0-1.77-0.17-3.12-0.55-4.25c-0.21-0.64-0.5-1.22-0.85-1.72
		c-0.36-0.52-0.81-0.97-1.33-1.34c-0.49-0.35-1.02-0.63-1.65-0.85c-0.55-0.2-1.15-0.34-1.83-0.45c-1.11-0.18-2.44-0.26-4.33-0.26
		h-17.08L289.87,59.16z"/>
	
		<linearGradient id="SVGID_00000062163675170966886190000011778487063443105466_" gradientUnits="userSpaceOnUse" x1="304.7637" y1="70.9927" x2="312.2731" y2="65.5054">
		<stop  offset="3.926741e-04" style="stop-color:#A7A9AC"/>
		<stop  offset="0.1139" style="stop-color:#A0A2A4"/>
		<stop  offset="0.2869" style="stop-color:#8B8D8F"/>
		<stop  offset="0.4977" style="stop-color:#696B6C"/>
		<stop  offset="0.7384" style="stop-color:#3B3C3C"/>
		<stop  offset="1" style="stop-color:#000000"/>
	</linearGradient>
	<path style="fill:url(#SVGID_00000062163675170966886190000011778487063443105466_);" d="M289.87,73.52h14.75
		c6.35,0,8.99-1.47,8.99-7.42h1.94c0,1.73-0.2,3.14-0.62,4.32c-0.23,0.65-0.53,1.24-0.9,1.76c-0.38,0.53-0.83,1-1.35,1.4
		c-0.95,0.72-2.12,1.22-3.59,1.52c-1.22,0.25-2.64,0.36-4.47,0.36h-16.69L289.87,73.52z"/>
	<path d="M289.87,32.3h16.41c5.47,0.19,6.15,1.86,6.15,6.25h1.94c0-1.39-0.07-2.34-0.23-3.17c-0.22-1.15-0.64-2.07-1.27-2.8
		c-0.68-0.79-1.58-1.34-2.77-1.7c-0.99-0.3-2.19-0.47-3.76-0.52l-0.07,0h-18.35L289.87,32.3z"/>
	
		<linearGradient id="SVGID_00000127734977480699324170000001423642780471365537_" gradientUnits="userSpaceOnUse" x1="301.333" y1="44.6571" x2="306.5137" y2="36.038">
		<stop  offset="0" style="stop-color:#BCBEC0"/>
		<stop  offset="0.1166" style="stop-color:#B7B8BB"/>
		<stop  offset="0.2635" style="stop-color:#A7A9AB"/>
		<stop  offset="0.4269" style="stop-color:#8E9091"/>
		<stop  offset="0.602" style="stop-color:#6B6C6D"/>
		<stop  offset="0.7866" style="stop-color:#3E3E3F"/>
		<stop  offset="0.9763" style="stop-color:#070707"/>
		<stop  offset="1" style="stop-color:#000000"/>
	</linearGradient>
	<path style="fill:url(#SVGID_00000127734977480699324170000001423642780471365537_);" d="M289.87,45.58h14.06
		c6.84,0,8.5-1.17,8.5-7.03h1.94c0,1.73-0.14,3.03-0.44,4.1c-0.18,0.65-0.42,1.21-0.73,1.72c-0.33,0.54-0.75,1.02-1.23,1.41
		c-0.46,0.37-1.01,0.69-1.62,0.93c-0.55,0.22-1.16,0.39-1.85,0.51c-1.17,0.21-2.58,0.31-4.56,0.31h-16L289.87,45.58z"/>
	<polygon class="st9" points="320.43,52.38 320.43,52.29 318.49,50.64 318.49,54.2 	"/>
	
		<linearGradient id="SVGID_00000097497693741339513930000017522682914444228260_" gradientUnits="userSpaceOnUse" x1="322.0721" y1="51.9565" x2="331.4189" y2="36.961">
		<stop  offset="0" style="stop-color:#414042"/>
		<stop  offset="0.1445" style="stop-color:#4F4F51"/>
		<stop  offset="0.4209" style="stop-color:#757577"/>
		<stop  offset="0.7973" style="stop-color:#B2B3B4"/>
		<stop  offset="1" style="stop-color:#D5D7D8"/>
	</linearGradient>
	<path style="fill:url(#SVGID_00000097497693741339513930000017522682914444228260_);" d="M320.43,52.29
		c9.67-1.56,11.52-7.98,11.52-17.26h-1.94c0,2.43-0.14,4.41-0.41,6.07c-0.31,1.82-0.79,3.29-1.47,4.5c-0.71,1.25-1.64,2.23-2.85,3
		c-0.65,0.41-1.4,0.76-2.22,1.05c-0.87,0.31-1.86,0.55-2.94,0.72l-1.63,0.26L320.43,52.29z"/>
	
		<linearGradient id="SVGID_00000006699149831439453790000013986947142609219717_" gradientUnits="userSpaceOnUse" x1="323.9381" y1="55.6435" x2="332.4291" y2="64.6961">
		<stop  offset="0" style="stop-color:#B1B3B6"/>
		<stop  offset="0.3551" style="stop-color:#ACAEB1"/>
		<stop  offset="0.7873" style="stop-color:#9D9FA2"/>
		<stop  offset="1" style="stop-color:#939598"/>
	</linearGradient>
	<path style="fill:url(#SVGID_00000006699149831439453790000013986947142609219717_);" d="M320.43,52.38
		c10.84,0.68,12.7,7.56,12.7,16.75h-1.94c0-2.47-0.14-4.39-0.43-6.06c-0.32-1.83-0.84-3.3-1.57-4.49c-0.77-1.24-1.78-2.18-3.1-2.87
		c-0.72-0.38-1.56-0.68-2.47-0.91c-0.98-0.25-2.1-0.41-3.31-0.49l-1.82-0.11L320.43,52.38z"/>
	
		<linearGradient id="SVGID_00000129904045583008663720000013883464017766516144_" gradientUnits="userSpaceOnUse" x1="282.371" y1="100.1447" x2="324.4455" y2="67.7057">
		<stop  offset="0.7051" style="stop-color:#000000"/>
		<stop  offset="0.8692" style="stop-color:#505153"/>
		<stop  offset="1" style="stop-color:#939598"/>
	</linearGradient>
	<path style="fill:url(#SVGID_00000129904045583008663720000013883464017766516144_);" d="M270.33,89.53h38.87
		c15.53,0,23.93-2.44,23.93-20.41h-1.94c0,2.13-0.12,4.07-0.37,5.76c-0.24,1.62-0.59,3.08-1.06,4.33c-0.45,1.2-0.99,2.21-1.66,3.1
		c-0.63,0.85-1.36,1.56-2.23,2.17c-0.85,0.6-1.81,1.1-2.94,1.51c-1.11,0.41-2.34,0.72-3.76,0.97c-1.35,0.23-2.85,0.39-4.59,0.5
		c-1.55,0.09-3.31,0.14-5.37,0.14h-36.93L270.33,89.53z"/>
	<polygon class="st24" points="15.14,29.45 9,33.47 7.06,37.06 15.14,31.76 	"/>
	<polygon points="21.29,33.47 15.14,29.45 15.14,31.76 23.23,37.06 	"/>
	
		<linearGradient id="SVGID_00000145749798791288746390000009547180064911783827_" gradientUnits="userSpaceOnUse" x1="8.543" y1="36.2698" x2="31.5477" y2="13.6953">
		<stop  offset="0" style="stop-color:#000000"/>
		<stop  offset="0.0986" style="stop-color:#080808"/>
		<stop  offset="0.2543" style="stop-color:#1E1F1F"/>
		<stop  offset="0.4474" style="stop-color:#434344"/>
		<stop  offset="0.6705" style="stop-color:#767677"/>
		<stop  offset="0.916" style="stop-color:#B5B7B8"/>
		<stop  offset="1" style="stop-color:#CDCFD0"/>
	</linearGradient>
	<path style="fill:url(#SVGID_00000145749798791288746390000009547180064911783827_);" d="M9,33.47v-4.94
		c0-1.36,0.14-2.73,0.41-4.05c0.26-1.29,0.66-2.56,1.17-3.77c0.5-1.19,1.13-2.34,1.85-3.41c0.72-1.06,1.54-2.06,2.45-2.97
		c0.91-0.91,1.91-1.73,2.97-2.45c1.07-0.73,2.22-1.35,3.41-1.85c1.21-0.51,2.48-0.91,3.77-1.17c1.32-0.27,2.69-0.41,4.05-0.41h26.6
		V6.51h-26.6c-12.16,0-22.02,9.86-22.02,22.02v8.53L9,33.47z"/>
	<polygon class="st26" points="15.14,35.59 7.06,40.87 9,41.92 15.14,37.91 	"/>
	<polygon class="st27" points="15.14,37.91 21.29,41.92 23.23,40.87 15.14,35.59 	"/>
	<polygon class="st27" points="23.23,75 23.23,40.87 21.29,41.92 21.29,75 	"/>
	
		<linearGradient id="SVGID_00000145023714788585063030000015892833051279266197_" gradientUnits="userSpaceOnUse" x1="21.2867" y1="80.0412" x2="31.3727" y2="80.0412">
		<stop  offset="0" style="stop-color:#3B81C3"/>
		<stop  offset="1" style="stop-color:#3B81C3"/>
	</linearGradient>
	<path style="fill:url(#SVGID_00000145023714788585063030000015892833051279266197_);" d="M21.29,75c0,1.36,0.27,2.68,0.79,3.93
		c0.51,1.2,1.24,2.28,2.16,3.21c0.93,0.93,2,1.65,3.21,2.16c1.24,0.53,2.57,0.79,3.93,0.79v-1.94c-4.5,0-8.15-3.65-8.15-8.15H21.29z
		"/>
	
		<linearGradient id="SVGID_00000055678185569440206970000005271846756387706263_" gradientUnits="userSpaceOnUse" x1="34.1475" y1="66.91" x2="34.1475" y2="82.1251">
		<stop  offset="0" style="stop-color:#00000C"/>
		<stop  offset="1" style="stop-color:#3B81C3"/>
	</linearGradient>
	<path style="fill:url(#SVGID_00000055678185569440206970000005271846756387706263_);" d="M31.37,85.08c1.36,0,2.68-0.27,3.93-0.79
		c1.2-0.51,2.28-1.24,3.21-2.16c0.93-0.93,1.65-2,2.16-3.21c0.53-1.24,0.79-2.57,0.79-3.93c0-1.36-0.27-2.68-0.79-3.93
		c-0.51-1.2-1.24-2.28-2.16-3.21c-0.93-0.93-2-1.65-3.21-2.16c-1.24-0.53-2.57-0.79-3.93-0.79h-2.6l-1.94,1.94h4.54
		c4.5,0,8.15,3.65,8.15,8.15c0,4.5-3.65,8.15-8.15,8.15V85.08z"/>
	<polygon class="st30" points="26.84,50.69 26.84,66.85 28.78,64.91 28.78,52.63 	"/>
	
		<linearGradient id="SVGID_00000164508652986975568880000015939128197128013492_" gradientUnits="userSpaceOnUse" x1="41.2594" y1="56.2988" x2="41.2594" y2="95.1693">
		<stop  offset="0" style="stop-color:#3B81C3"/>
		<stop  offset="0.2063" style="stop-color:#3A7FC0"/>
		<stop  offset="0.3568" style="stop-color:#3778B7"/>
		<stop  offset="0.4896" style="stop-color:#326DA7"/>
		<stop  offset="0.6122" style="stop-color:#2B5D91"/>
		<stop  offset="0.7277" style="stop-color:#214974"/>
		<stop  offset="0.838" style="stop-color:#163050"/>
		<stop  offset="0.9422" style="stop-color:#091326"/>
		<stop  offset="1" style="stop-color:#00000C"/>
	</linearGradient>
	<path style="fill:url(#SVGID_00000164508652986975568880000015939128197128013492_);" d="M28.78,52.63h2.6
		c1.52,0,3.04,0.15,4.51,0.45c1.44,0.29,2.85,0.73,4.2,1.3c1.33,0.56,2.6,1.25,3.8,2.06c1.18,0.8,2.3,1.72,3.31,2.73
		c1.01,1.01,1.93,2.13,2.73,3.31c0.81,1.2,1.5,2.47,2.06,3.8c0.57,1.35,1.01,2.76,1.3,4.2c0.3,1.47,0.45,2.99,0.45,4.51
		s-0.15,3.04-0.45,4.51c-0.29,1.44-0.73,2.85-1.3,4.2c-0.56,1.33-1.25,2.6-2.06,3.8c-0.8,1.18-1.72,2.3-2.73,3.31
		c-1.01,1.01-2.13,1.93-3.31,2.73c-1.2,0.81-2.47,1.5-3.8,2.06c-1.35,0.57-2.76,1.01-4.2,1.3c-1.47,0.3-2.99,0.45-4.51,0.45v1.94
		c13.43,0,24.31-10.88,24.31-24.31S44.8,50.69,31.37,50.69h-4.54L28.78,52.63z"/>
	<path class="st32" d="M57.93,83.14C54.29,94.8,44.25,99.11,44.25,99.11l6.27-1.75c0.15-0.13,0.31-0.26,0.47-0.39
		c1.84-1.57,3.48-3.36,4.85-5.29c1.45-2.04,2.62-4.25,3.48-6.6L57.93,83.14z"/>
	<path class="st27" d="M59.32,85.08h10.79l1.94-1.94c0,0-10.13,0-14.11,0L59.32,85.08z"/>
	<polygon class="st27" points="70.11,85.08 70.11,97.37 72.05,99.31 72.05,83.14 	"/>
	<polygon class="st30" points="44.25,99.11 44.25,99.31 72.05,99.31 70.11,97.37 50.52,97.37 	"/>
	
		<linearGradient id="SVGID_00000111190774115831731170000011366789388100639639_" gradientUnits="userSpaceOnUse" x1="25.4802" y1="34.2566" x2="38.1917" y2="24.315">
		<stop  offset="0.1605" style="stop-color:#B1B3B6"/>
		<stop  offset="0.2461" style="stop-color:#A3A5A7"/>
		<stop  offset="0.4097" style="stop-color:#7E7F81"/>
		<stop  offset="0.6326" style="stop-color:#424344"/>
		<stop  offset="0.8554" style="stop-color:#000000"/>
	</linearGradient>
	<path style="fill:url(#SVGID_00000111190774115831731170000011366789388100639639_);" d="M55.68,20.73H30.6
		c-1.26,0-2.48,0.25-3.63,0.73c-1.11,0.47-2.1,1.14-2.96,1.99c-0.85,0.85-1.53,1.85-1.99,2.96c-0.49,1.15-0.73,2.37-0.73,3.63v3.43
		l1.94,3.59v-7.02c0-4.07,3.3-7.37,7.37-7.37h25.08V20.73z"/>
	<path d="M55.68,22.67H81.5c4.07,0,7.37,3.3,7.37,7.37v22.87h1.94V30.04c0-1.26-0.25-2.48-0.73-3.63c-0.47-1.11-1.14-2.1-1.99-2.96
		c-0.85-0.85-1.85-1.53-2.96-1.99c-1.15-0.49-2.37-0.73-3.63-0.73H55.68V22.67z"/>
	<polygon points="75.16,99.31 75.16,83.14 77.1,85.08 77.1,97.37 	"/>
	
		<linearGradient id="SVGID_00000101077398179541070070000017759722059330317235_" gradientUnits="userSpaceOnUse" x1="84.8604" y1="74.3387" x2="80.2192" y2="82.5079">
		<stop  offset="0" style="stop-color:#000000"/>
		<stop  offset="3.276169e-03" style="stop-color:#010101"/>
		<stop  offset="0.4881" style="stop-color:#4F5052"/>
		<stop  offset="0.8317" style="stop-color:#808284"/>
		<stop  offset="1" style="stop-color:#939598"/>
	</linearGradient>
	<path style="fill:url(#SVGID_00000101077398179541070070000017759722059330317235_);" d="M75.16,83.14h6.33
		c4.07,0,7.37-3.3,7.37-7.37V52.91h1.94v22.86c0,1.26-0.25,2.48-0.73,3.63c-0.47,1.11-1.14,2.1-1.99,2.96
		c-0.85,0.85-1.85,1.53-2.96,1.99c-1.15,0.49-2.37,0.73-3.63,0.73H77.1L75.16,83.14z"/>
	
		<linearGradient id="SVGID_00000017509811805003360790000012882109616327982744_" gradientUnits="userSpaceOnUse" x1="69.1464" y1="3.9068" x2="104.9121" y2="34.1114">
		<stop  offset="0" style="stop-color:#CDCFD0"/>
		<stop  offset="0.4635" style="stop-color:#D5D7D8"/>
		<stop  offset="1" style="stop-color:#D5D7D8"/>
	</linearGradient>
	<path style="fill:url(#SVGID_00000017509811805003360790000012882109616327982744_);" d="M55.68,6.51h27.33l0,0
		c12.16,0,22.02,9.86,22.02,22.02v18.99h-1.94V28.53c0-1.36-0.14-2.73-0.41-4.05c-0.26-1.29-0.66-2.56-1.17-3.77
		c-0.5-1.19-1.13-2.34-1.85-3.41c-0.72-1.06-1.54-2.06-2.45-2.97c-0.91-0.91-1.91-1.73-2.97-2.45c-1.07-0.73-2.22-1.35-3.41-1.85
		c-1.21-0.51-2.48-0.91-3.77-1.17c-1.32-0.27-2.69-0.41-4.05-0.41H55.68V6.51z"/>
	<path class="st30" d="M7.06,40.87V75c0,13.43,10.88,24.31,24.31,24.31v-1.94c-1.52,0-3.04-0.15-4.51-0.45
		c-1.44-0.29-2.85-0.73-4.2-1.3c-1.33-0.56-2.6-1.25-3.8-2.06c-1.18-0.8-2.3-1.72-3.31-2.73c-1.01-1.01-1.93-2.13-2.73-3.31
		c-0.81-1.2-1.5-2.47-2.06-3.8c-0.57-1.35-1.01-2.76-1.3-4.2C9.16,78.03,9,76.52,9,75V41.92L7.06,40.87z"/>
	
		<linearGradient id="SVGID_00000136398498185451401450000015106668985140437901_" gradientUnits="userSpaceOnUse" x1="88.0828" y1="95.9252" x2="97.5627" y2="68.9378">
		<stop  offset="0" style="stop-color:#000000"/>
		<stop  offset="0.1161" style="stop-color:#2F3030"/>
		<stop  offset="0.2557" style="stop-color:#626263"/>
		<stop  offset="0.3937" style="stop-color:#8B8C8D"/>
		<stop  offset="0.5269" style="stop-color:#ACADAE"/>
		<stop  offset="0.6541" style="stop-color:#C3C4C5"/>
		<stop  offset="0.7728" style="stop-color:#D1D2D3"/>
		<stop  offset="0.8746" style="stop-color:#D5D7D8"/>
	</linearGradient>
	<path style="fill:url(#SVGID_00000136398498185451401450000015106668985140437901_);" d="M103.09,47.52v29.77
		c0,1.36-0.14,2.73-0.41,4.05c-0.26,1.29-0.66,2.56-1.17,3.77c-0.5,1.19-1.13,2.34-1.85,3.41c-0.72,1.06-1.54,2.06-2.45,2.97
		c-0.91,0.91-1.91,1.73-2.97,2.45c-1.07,0.73-2.22,1.35-3.41,1.85c-1.21,0.51-2.48,0.91-3.77,1.17c-1.32,0.27-2.69,0.41-4.05,0.41
		H77.1l-1.94,1.94h7.85c12.16,0,22.02-9.86,22.02-22.02V47.52H103.09z"/>
</g>
</svg>
