<svg width="512" height="512" viewBox="0 0 512 512" fill="none" xmlns="http://www.w3.org/2000/svg">
<path d="M84.4972 136.957C84.4972 115.689 101.742 98.445 123.01 98.445H388.99C410.258 98.445 427.503 115.689 427.503 136.957V375.922C427.503 397.19 410.258 414.434 388.99 414.434H355.913V498.879H396.933C460.476 498.879 512 447.355 512 383.813V129.067C512 65.524 460.476 14 396.933 14H115.067C51.524 14 0 65.524 0 129.067V173.641L42.2225 145.998L84.445 173.641V136.957H84.4972Z" fill="url(#paint0_linear_3_73)"/>
<path d="M84.4972 371.898C84.4972 395.413 103.571 414.487 127.086 414.487C150.601 414.487 169.674 395.413 169.674 371.898C169.674 348.383 150.601 329.31 127.086 329.31H103.361V244.865H127.086C197.265 244.865 254.119 301.719 254.119 371.898C254.119 442.078 197.212 498.932 127.033 498.932C56.8541 498.932 0 442.025 0 371.898V193.55L42.2225 166.012L84.445 193.55V371.898H84.4972Z" fill="url(#paint1_linear_3_73)"/>
<path d="M339.609 414.434V498.879H194.338V497.887C194.338 497.887 246.803 475.364 265.824 414.434C286.674 414.434 339.609 414.434 339.609 414.434Z" fill="#0066B3"/>
<path d="M42.2225 133.874L10.1376 154.881L0 173.641L42.2225 145.945V133.874Z" fill="#58595B"/>
<path d="M74.3596 154.881L42.2224 133.874V145.945L84.4972 173.641L74.3596 154.881Z" fill="black"/>
<path d="M10.1376 154.881V129.067C10.1376 121.96 10.8692 114.801 12.2801 107.903C13.6387 101.162 15.7289 94.5258 18.394 88.2029C21.0067 81.9845 24.2988 75.9751 28.0612 70.3837C31.8236 64.8447 36.1086 59.6191 40.8639 54.8638C45.6191 50.1086 50.8447 45.8236 56.3838 42.0612C61.9751 38.2466 67.9845 35.0067 74.2029 32.394C80.5258 29.7289 87.1623 27.6387 93.9033 26.2801C100.801 24.8692 107.96 24.1376 115.067 24.1376H254.067V14H115.067C51.524 14 0 65.524 0 129.067V173.641L10.1376 154.881Z" fill="url(#paint2_linear_3_73)"/>
<path d="M42.2225 165.959L0 193.55L10.1376 199.037L42.2225 178.082V165.959Z" fill="#00528A"/>
<path d="M42.2224 178.082L74.3596 199.037L84.4972 193.55L42.2224 165.959V178.082Z" fill="#3B81C3"/>
<path d="M84.4971 371.898V193.55L74.3595 199.037V371.898H84.4971Z" fill="#3B81C3"/>
<path d="M74.3595 371.898C74.3595 379.005 75.7704 385.903 78.4877 392.435C81.1527 398.705 84.9674 404.349 89.7749 409.209C94.6346 414.069 100.226 417.831 106.549 420.496C113.029 423.266 119.979 424.624 127.085 424.624V414.487C103.57 414.487 84.4971 395.413 84.4971 371.898H74.3595Z" fill="url(#paint3_linear_3_73)"/>
<path d="M127.033 424.572C134.14 424.572 141.038 423.161 147.57 420.444C153.84 417.779 159.484 413.964 164.344 409.157C169.204 404.297 172.966 398.705 175.631 392.383C178.401 385.903 179.759 378.953 179.759 371.846C179.759 364.739 178.348 357.842 175.631 351.31C172.966 345.039 169.151 339.395 164.344 334.536C159.484 329.676 153.893 325.914 147.57 323.248C141.09 320.479 134.14 319.12 127.033 319.12H113.447L103.309 329.258H127.033C150.548 329.258 169.622 348.331 169.622 371.846C169.622 395.361 150.548 414.434 127.033 414.434V424.572Z" fill="url(#paint4_linear_3_73)"/>
<path d="M103.362 244.865V329.31L113.499 319.173V255.003L103.362 244.865Z" fill="#00000C"/>
<path d="M113.499 255.003H127.086C135.028 255.003 142.971 255.787 150.653 257.354C158.178 258.87 165.546 261.169 172.6 264.147C179.55 267.074 186.187 270.679 192.457 274.912C198.623 279.093 204.476 283.9 209.754 289.178C215.032 294.456 219.839 300.308 224.02 306.474C228.252 312.745 231.858 319.382 234.784 326.332C237.763 333.386 240.062 340.754 241.577 348.279C243.145 355.96 243.929 363.903 243.929 371.846C243.929 379.789 243.145 387.732 241.577 395.413C240.062 402.938 237.763 410.306 234.784 417.361C231.858 424.311 228.252 430.947 224.02 437.218C219.839 443.384 215.032 449.237 209.754 454.514C204.476 459.792 198.623 464.6 192.457 468.78C186.187 473.013 179.55 476.619 172.6 479.545C165.546 482.523 158.178 484.823 150.653 486.338C142.971 487.906 135.028 488.69 127.086 488.69V498.827C197.265 498.827 254.119 441.973 254.119 371.794C254.119 301.615 197.213 244.865 127.033 244.865H103.309L113.499 255.003Z" fill="url(#paint5_linear_3_73)"/>
<path d="M265.824 414.434C246.803 475.364 194.338 497.887 194.338 497.887L227.103 488.742C227.886 488.062 228.723 487.383 229.559 486.704C239.174 478.5 247.744 469.146 254.903 459.061C262.48 448.401 268.594 436.852 273.088 424.572L265.824 414.434Z" fill="#004578"/>
<path d="M273.087 424.572H329.471L339.609 414.434C339.609 414.434 286.674 414.434 265.876 414.434L273.087 424.572Z" fill="#3B81C3"/>
<path d="M329.471 424.572V488.794L339.609 498.932V414.434L329.471 424.572Z" fill="#3B81C3"/>
<path d="M194.338 497.887V498.932H339.609L329.471 488.794H227.103L194.338 497.887Z" fill="#00000C"/>
<path d="M254.066 88.3074H123.009C116.425 88.3074 110.05 89.6138 104.041 92.1221C98.2403 94.5781 93.067 98.0792 88.573 102.521C84.1313 106.963 80.5779 112.188 78.1742 117.989C75.6136 123.998 74.3595 130.373 74.3595 136.957V154.881L84.4971 173.641V136.957C84.4971 115.689 101.741 98.445 123.009 98.445H254.066V88.3074Z" fill="url(#paint6_linear_3_73)"/>
<path d="M254.066 98.445H388.99C410.258 98.445 427.503 115.689 427.503 136.957V256.466H437.64V136.957C437.64 130.373 436.334 123.998 433.826 117.989C431.37 112.188 427.868 107.015 423.427 102.521C418.985 98.0792 413.759 94.5258 407.959 92.1221C401.95 89.5616 395.575 88.3074 388.99 88.3074H254.066V98.445Z" fill="black"/>
<path d="M355.86 498.932V414.434L365.998 424.572V488.794L355.86 498.932Z" fill="black"/>
<path d="M355.86 414.434H388.938C410.206 414.434 427.45 397.19 427.45 375.922V256.466H437.588V375.922C437.588 382.506 436.281 388.881 433.773 394.891C431.317 400.691 427.816 405.865 423.374 410.359C418.933 414.8 413.707 418.354 407.907 420.757C401.897 423.318 395.522 424.572 388.938 424.572H365.998L355.86 414.434Z" fill="url(#paint7_linear_3_73)"/>
<path d="M254.066 14H396.881C460.424 14 511.948 65.524 511.948 129.067V228.3H501.81V129.067C501.81 121.96 501.079 114.801 499.668 107.903C498.309 101.162 496.219 94.5258 493.554 88.2029C490.941 81.9845 487.649 75.9751 483.886 70.3838C480.124 64.8447 475.839 59.6191 471.084 54.8639C466.329 50.1086 461.103 45.8237 455.564 42.0613C449.973 38.2466 443.963 35.0068 437.745 32.394C431.422 29.7289 424.785 27.6387 418.044 26.2801C411.147 24.8692 403.988 24.1376 396.881 24.1376H254.066V14Z" fill="url(#paint8_linear_3_73)"/>
<path d="M0 193.55V371.898C0 442.078 56.8541 498.932 127.033 498.932V488.794C119.09 488.794 111.148 488.01 103.466 486.443C95.9412 484.927 88.5732 482.628 81.5187 479.649C74.5687 476.723 67.9322 473.117 61.6616 468.885C55.4954 464.704 49.6428 459.897 44.365 454.619C39.0872 449.341 34.2796 443.488 30.0992 437.322C25.8665 431.052 22.2609 424.415 19.3346 417.465C16.356 410.411 14.0567 403.043 12.5413 395.518C10.9737 387.732 10.1376 379.841 10.1376 371.898V199.037L0 193.55Z" fill="#00000C"/>
<path d="M501.81 228.3V383.865C501.81 390.972 501.078 398.131 499.667 405.028C498.309 411.769 496.219 418.406 493.553 424.729C490.941 430.947 487.649 436.957 483.886 442.548C480.124 448.087 475.839 453.313 471.084 458.068C466.328 462.823 461.103 467.108 455.564 470.87C449.972 474.685 443.963 477.925 437.745 480.538C431.422 483.203 424.785 485.293 418.044 486.652C411.146 488.063 403.987 488.794 396.881 488.794H365.998L355.86 498.932H396.881C460.423 498.932 511.947 447.408 511.947 383.865V228.3H501.81Z" fill="url(#paint9_linear_3_73)"/>
<defs>
<linearGradient id="paint0_linear_3_73" x1="423.268" y1="-35.0419" x2="168.459" y2="408.997" gradientUnits="userSpaceOnUse">
<stop offset="0.3598" stop-color="#C4C6C8"/>
<stop offset="1" stop-color="#58595B"/>
</linearGradient>
<linearGradient id="paint1_linear_3_73" x1="154.631" y1="289.35" x2="28.8247" y2="394.505" gradientUnits="userSpaceOnUse">
<stop offset="3.89459e-07" stop-color="#0066B3"/>
<stop offset="1" stop-color="#003674"/>
</linearGradient>
<linearGradient id="paint2_linear_3_73" x1="7.7495" y1="169.512" x2="127.962" y2="51.5472" gradientUnits="userSpaceOnUse">
<stop/>
<stop offset="0.0986" stop-color="#080808"/>
<stop offset="0.2543" stop-color="#1E1F1F"/>
<stop offset="0.4474" stop-color="#434344"/>
<stop offset="0.6705" stop-color="#767677"/>
<stop offset="0.916" stop-color="#B5B7B8"/>
<stop offset="1" stop-color="#CDCFD0"/>
</linearGradient>
<linearGradient id="paint3_linear_3_73" x1="74.3423" y1="398.241" x2="127.047" y2="398.241" gradientUnits="userSpaceOnUse">
<stop stop-color="#3B81C3"/>
<stop offset="1" stop-color="#3B81C3"/>
</linearGradient>
<linearGradient id="paint4_linear_3_73" x1="141.547" y1="329.624" x2="141.547" y2="409.131" gradientUnits="userSpaceOnUse">
<stop stop-color="#00000C"/>
<stop offset="1" stop-color="#3B81C3"/>
</linearGradient>
<linearGradient id="paint5_linear_3_73" x1="178.711" y1="274.174" x2="178.711" y2="477.294" gradientUnits="userSpaceOnUse">
<stop stop-color="#3B81C3"/>
<stop offset="0.2063" stop-color="#3A7FC0"/>
<stop offset="0.3568" stop-color="#3778B7"/>
<stop offset="0.4896" stop-color="#326DA7"/>
<stop offset="0.6122" stop-color="#2B5D91"/>
<stop offset="0.7277" stop-color="#214974"/>
<stop offset="0.838" stop-color="#163050"/>
<stop offset="0.9422" stop-color="#091326"/>
<stop offset="1" stop-color="#00000C"/>
</linearGradient>
<linearGradient id="paint6_linear_3_73" x1="96.2556" y1="158.991" x2="162.68" y2="107.041" gradientUnits="userSpaceOnUse">
<stop offset="0.1605" stop-color="#B1B3B6"/>
<stop offset="0.2461" stop-color="#A3A5A7"/>
<stop offset="0.4097" stop-color="#7E7F81"/>
<stop offset="0.6326" stop-color="#424344"/>
<stop offset="0.8554"/>
</linearGradient>
<linearGradient id="paint7_linear_3_73" x1="406.55" y1="368.443" x2="382.297" y2="411.131" gradientUnits="userSpaceOnUse">
<stop/>
<stop offset="0.00327617" stop-color="#010101"/>
<stop offset="0.4881" stop-color="#4F5052"/>
<stop offset="0.8317" stop-color="#808284"/>
<stop offset="1" stop-color="#939598"/>
</linearGradient>
<linearGradient id="paint8_linear_3_73" x1="324.436" y1="0.396847" x2="511.332" y2="158.233" gradientUnits="userSpaceOnUse">
<stop stop-color="#CDCFD0"/>
<stop offset="0.4635" stop-color="#D5D7D8"/>
<stop offset="1" stop-color="#D5D7D8"/>
</linearGradient>
<linearGradient id="paint9_linear_3_73" x1="423.389" y1="481.244" x2="472.927" y2="340.22" gradientUnits="userSpaceOnUse">
<stop/>
<stop offset="0.1161" stop-color="#2F3030"/>
<stop offset="0.2557" stop-color="#626263"/>
<stop offset="0.3937" stop-color="#8B8C8D"/>
<stop offset="0.5269" stop-color="#ACADAE"/>
<stop offset="0.6541" stop-color="#C3C4C5"/>
<stop offset="0.7728" stop-color="#D1D2D3"/>
<stop offset="0.8746" stop-color="#D5D7D8"/>
</linearGradient>
</defs>
</svg>
